{"title":"The Dark Knight Rises 2012 1080p BluRay QEBSx AAC51 MP4-FASM","uid":8878161,"size":4323668037,"categoryP":"video","categoryS":"hd___movies","magnet":"?xt=urn:btih:39de8af58864a19b4ed9d0fa90db1921e04cba96&amp;dn=The+Dark+Knight+Rises+2012+1080p+BluRay+QEBSx+AAC51+MP4-FASM&amp;tr=udp%3A%2F%2Ftracker.openbittorrent.com%3A80&amp;tr=udp%3A%2F%2Fopen.demonii.com%3A1337&amp;tr=udp%3A%2F%2Ftracker.coppersurfer.tk%3A6969&amp;tr=udp%3A%2F%2Fexodus.desync.com%3A6969","seeders":8,"leechers":4,"uploader":"SaM","files":14,"time":1378262084,"description":" &lt;a href=&quot;http://imdb.com/title/tt1345836/&quot; rel=&quot;nofollow&quot; target=&quot;_NEW&quot;&gt;http://imdb.com/title/tt1345836/&lt;/a&gt;\n\nPlot:\nEight years on, a new evil rises from where the Batman and Commissioner Gordon \ntried to bury it, causing the Batman to resurface and fight to protect Gotham \nCity... the very city which brands him an enemy.\n\nSUBTITLES:\nENGLISH, POLISH others from other BluRay releases on subscene.com\n\nGeneral\nComplete name                  : The_Dark_Knight_Rises_2012_1080p_BluRay_QEBSx_AAC51_MP4-FASM.mp4\nFormat                         : MPEG-4\nFormat profile                 : Base Media\nCodec ID                       : isom\nFile size                      : 3.99 GiB\nDuration                       : 2h 44mn\nOverall bit rate mode          : Variable\nOverall bit rate               : 3 473 Kbps\nEncoded date                   : UTC 2013-08-13 11:43:17\nTagged date                    : UTC 2013-08-13 11:43:17\n\nVideo\nID                             : 1\nFormat                         : AVC\nFormat/Info                    : Advanced Video Codec\nFormat profile                 : &lt;a class=&quot;__cf_email__&quot; href=&quot;/cdn-cgi/l/email-protection&quot; data-cfemail=&quot;1e567779765e522a302e&quot;&gt;[email&amp;#160;protected]&lt;/a&gt;&lt;script cf-hash='f9e31' type=&quot;text/javascript&quot;&gt;\n/* &lt;![CDATA[ */!function(){try{var t=&quot;currentScript&quot;in document?document.currentScript:function(){for(var t=document.getElementsByTagName(&quot;script&quot;),e=t.length;e--;)if(t[e].getAttribute(&quot;cf-hash&quot;))return t[e]}();if(t&amp;&amp;t.previousSibling){var e,r,n,i,c=t.previousSibling,a=c.getAttribute(&quot;data-cfemail&quot;);if(a){for(e=&quot;&quot;,r=parseInt(a.substr(0,2),16),n=2;a.length-n;n+=2)i=parseInt(a.substr(n,2),16)^r,e+=String.fromCharCode(i);e=document.createTextNode(e),c.parentNode.replaceChild(e,c)}}}catch(u){}}();/* ]]&gt; */&lt;/script&gt;\nFormat settings, CABAC         : Yes\nFormat settings, ReFrames      : 4 frames\nCodec ID                       : avc1\nCodec ID/Info                  : Advanced Video Coding\nDuration                       : 2h 44mn\nBit rate                       : 3 079 Kbps\nMaximum bit rate               : 8 436 Kbps\nWidth                          : 1 920 pixels\nHeight                         : 1 080 pixels\nDisplay aspect ratio           : 16:9\nFrame rate mode                : Constant\nFrame rate                     : 23.976 fps\nColor space                    : YUV\nChroma subsampling             : 4:2:0\nBit depth                      : 8 bits\nScan type                      : Progressive\nBits/(Pixel*Frame)             : 0.062\nStream size                    : 3.54 GiB (89%)\nWriting library                : FASM Quality Enhancer Bitrate Squeezer X.2 (c)2013 Fachman\nEncoded date                   : UTC 2013-08-13 11:43:17\nTagged date                    : UTC 2013-08-13 11:46:33\nColor primaries                : BT.709\nTransfer characteristics       : BT.709\nMatrix coefficients            : BT.709\n\nAudio\nID                             : 2\nFormat                         : AAC\nFormat/Info                    : Advanced Audio Codec\nFormat profile                 : LC\nCodec ID                       : 40\nDuration                       : 2h 44mn\nBit rate mode                  : Variable\nBit rate                       : 384 Kbps\nMaximum bit rate               : 514 Kbps\nChannel(s)                     : 6 channels\nChannel positions              : Front: L C R, Side: L R, LFE\nSampling rate                  : 48.0 KHz\nCompression mode               : Lossy\nStream size                    : 460 MiB (11%)\nLanguage                       : English\nEncoded date                   : UTC 2013-08-13 11:46:13\nTagged date                    : UTC 2013-08-13 11:46:33\n\nMenu\n00:00:00.000                   : Chapter00\n00:09:02.834                   : Chapter01\n00:19:08.522                   : Chapter02\n00:30:15.856                   : Chapter03\n00:41:08.800                   : Chapter04\n00:51:09.525                   : Chapter05\n01:00:29.668                   : Chapter06\n01:10:04.033                   : Chapter07\n01:20:13.475                   : Chapter08\n01:31:00.580                   : Chapter09\n01:39:24.292                   : Chapter10\n01:48:58.490                   : Chapter11\n02:00:21.589                   : Chapter12\n02:10:47.673                   : Chapter13\n02:19:12.636                   : Chapter14\n02:30:14.631                   : Chapter15\n02:36:50.526                   : Chapter16\n\nSCREENSHOTS :\n &lt;a href=&quot;\nhttp://img822.imageshack.us/img822/4746/fb4g.png&quot; rel=&quot;nofollow&quot; target=&quot;_NEW&quot;&gt;\nhttp://img822.imageshack.us/img822/4746/fb4g.png&lt;/a&gt;\n &lt;a href=&quot;\nhttp://img191.imageshack.us/img191/5988/hhnt.png&quot; rel=&quot;nofollow&quot; target=&quot;_NEW&quot;&gt;\nhttp://img191.imageshack.us/img191/5988/hhnt.png&lt;/a&gt;\n &lt;a href=&quot;\nhttp://img96.imageshack.us/img96/3138/cmf2.png&quot; rel=&quot;nofollow&quot; target=&quot;_NEW&quot;&gt;\nhttp://img96.imageshack.us/img96/3138/cmf2.png&lt;/a&gt;\n &lt;a href=&quot;\nhttp://img690.imageshack.us/img690/2844/yvff.png&quot; rel=&quot;nofollow&quot; target=&quot;_NEW&quot;&gt;\nhttp://img690.imageshack.us/img690/2844/yvff.png&lt;/a&gt;","torrent":{"xt":"urn:btih:39de8af58864a19b4ed9d0fa90db1921e04cba96","amp;dn":"The+Dark+Knight+Rises+2012+1080p+BluRay+QEBSx+AAC51+MP4-FASM","amp;tr":["udp%3A%2F%2Ftracker.openbittorrent.com%3A80","udp%3A%2F%2Fopen.demonii.com%3A1337","udp%3A%2F%2Ftracker.coppersurfer.tk%3A6969","udp%3A%2F%2Fexodus.desync.com%3A6969"],"infoHash":"39de8af58864a19b4ed9d0fa90db1921e04cba96","infoHashBuffer":{"type":"Buffer","data":[57,222,138,245,136,100,161,155,78,217,208,250,144,219,25,33,224,76,186,150]},"announce":[],"urlList":[]}}